<?xml version="1.0" encoding="UTF-8"?>
<!-- Created with Inkscape (http://www.inkscape.org/) -->
<svg width="32" height="32" version="1.1" viewBox="0 0 8.5 8.5" xmlns="http://www.w3.org/2000/svg">
 <g fill="#eee">
  <rect x="0.7" y="1.6" width="1.0" height="1.0" rx=".16" ry=".16"/>
  <rect x="2.7" y="1.6" width="1.0" height="1.0" rx=".16" ry=".16"/>
  <rect x="4.7" y="1.6" width="1.0" height="1.0" rx=".16" ry=".16"/>
  <rect x="6.7" y="1.6" width="1.0" height="1.0" rx=".16" ry=".16"/>
  <rect x="0.7" y="3.7" width="1.0" height="1.0" rx=".16" ry=".16"/>
  <rect x="2.7" y="3.7" width="1.0" height="1.0" rx=".16" ry=".16"/>
  <rect x="4.7" y="3.7" width="1.0" height="1.0" rx=".16" ry=".16"/>
  <rect x="6.7" y="3.7" width="1.0" height="1.0" rx=".16" ry=".16"/>
  <rect x="0.7" y="5.8" width="1.0" height="1.0" rx=".16" ry=".16"/>
  <rect x="2.7" y="5.8" width="1.0" height="1.0" rx=".16" ry=".16"/>
  <rect x="4.7" y="5.8" width="1.0" height="1.0" rx=".16" ry=".16"/>
  <rect x="6.7" y="5.8" width="1.0" height="1.0" rx=".16" ry=".16"/>
 </g>
</svg>
